# xmcd CD database file
#
# Track frame offsets:
#	150
#	15658
#	31271
#	49429
#
# Disc length: 878 seconds
#
# Revision: 0
# Processed by: cddbd v1.5.2PL0 Copyright (c) Steve Scherf et al.
# Submitted via: CDex 1.70beta2
#
DISCID=2b036c04
DTITLE=PeTE - Feel Like A Man
DYEAR=2012
DGENRE=Country
TTITLE0=Put The Walls Down
TTITLE1=Feel Like A Man
TTITLE2=We Had A Ball
TTITLE3=Something Country Tonight
EXTD=YEAR: 2012
EXTT0=
EXTT1=
EXTT2=
EXTT3=
PLAYORDER=
